#!OML:ASF X:\für Bonn\!DataBase\2005_08_11_Bastian_Final\c3d\Bastian.ASF
:FULLY-SPECIFIED
:DEGREES
48
root -20.0711 17.5711 -0.619178 91.9061 -82.1758 -100.86
lowerback 5.08412 1.94519 7.31745
upperback 3.05362 2.82282 0.235191
thorax 0.662881 1.48623 -3.972
lowerneck -4.91967 -6.9541 -6.36439
upperneck -8.30123 -8.82268 10.1636
head -1.00933 -4.47454 4.35815
rclavicle -2.48066e-015 -1.66979e-014
rhumerus 27.4072 14.2607 -48.2547
rradius 68.4377
rwrist 4.85563
rhand -19.3553 6.6451
rfingers 7.12502
rthumb 6.96221 -23.2204
lclavicle -2.48066e-015 -1.66979e-014
lhumerus -23.9246 -4.13497 83.5846
lradius 12.8247
lwrist 8.18592
lhand -10.4504 -6.62822
lfingers 7.12502
lthumb 15.5498 22.7666
rfemur 10.739 4.11378 28.2348
rtibia 26.4037
rfoot -13.2527 -3.44433
rtoes -16.1818
lfemur -8.14174 0.663449 -11.183
ltibia 26.4777
lfoot -2.23991 -6.24819
ltoes -16.6974
49
root -20.1293 17.5752 -0.594152 91.9235 -82.2382 -100.811
lowerback 4.91141 1.98378 7.30219
upperback 3.04371 2.86179 0.14781
thorax 0.757465 1.51059 -4.04805
lowerneck -4.8336 -7.02919 -6.37544
upperneck -8.36053 -8.92212 10.2526
head -1.03 -4.52831 4.39395
rclavicle -1.63001e-014 -6.36111e-015
rhumerus 28.9747 13.8589 -47.1355
rradius 67.3457
rwrist 5.03842
rhand -19.6207 6.97337
rfingers 7.12502
rthumb 6.70597 -22.9004
lclavicle -1.63001e-014 -6.36111e-015
lhumerus -23.3713 -5.04016 83.6209
lradius 13.0948
lwrist 8.96209
lhand -10.5066 -6.72265
lfingers 7.12502
lthumb 15.4957 22.6764
rfemur 10.7628 4.16903 28.0856
rtibia 26.5859
rfoot -13.1863 -3.39219
rtoes -16.5088
lfemur -7.99091 0.861018 -11.3253
ltibia 26.4829
lfoot -2.39055 -6.43192
ltoes -16.1449
50
root -20.1862 17.5784 -0.569598 91.8587 -82.2578 -100.687
lowerback 4.75849 2.01995 7.34063
upperback 3.03203 2.90117 0.0654852
thorax 0.842216 1.53541 -4.14959
lowerneck -4.76789 -7.10715 -6.40736
upperneck -8.40555 -9.0234 10.3845
head -1.03892 -4.58267 4.44742
rclavicle -1.3946e-014 -2.14687e-014
rhumerus 30.4596 13.4585 -46.0713
rradius 66.234
rwrist 5.25756
rhand -19.9453 7.2931
rfingers 7.12502
rthumb 6.39262 -22.5904
lclavicle -1.3946e-014 -2.14687e-014
lhumerus -22.8204 -5.9267 83.6351
lradius 13.3549
lwrist 9.71319
lhand -10.5867 -6.80096
lfingers 7.12502
lthumb 15.4187 22.604
rfemur 10.7872 4.22159 27.9897
rtibia 26.7639
rfoot -13.124 -3.36626
rtoes -16.9623
lfemur -7.84074 0.999222 -11.4198
ltibia 26.5063
lfoot -2.55949 -6.5727
ltoes -15.4907
51
root -20.241 17.5814 -0.54558 91.8042 -82.2975 -100.579
lowerback 4.62175 2.05424 7.33856
upperback 3.02768 2.93734 -0.013464
thorax 0.922811 1.55792 -4.2253
lowerneck -4.72216 -7.18024 -6.37445
upperneck -8.45683 -9.12171 10.4365
head -1.05376 -4.6358 4.45983
rclavicle 2.6346e-014 2.38542e-015
rhumerus 31.9007 13.0274 -45.0701
rradius 65.1275
rwrist 5.55929
rhand -20.1597 7.58238
rfingers 7.12502
rthumb 6.1856 -22.3073
lclavicle 2.6346e-014 2.38542e-015
lhumerus -22.2889 -6.92312 83.6867
lradius 13.6515
lwrist 10.5634
lhand -10.6997 -6.83156
lfingers 7.12502
lthumb 15.3098 22.5818
rfemur 10.8078 4.25165 27.8626
rtibia 26.9493
rfoot -13.0671 -3.31474
rtoes -17.2553
lfemur -7.70548 1.18932 -11.5301
ltibia 26.5407
lfoot -2.70477 -6.77612
ltoes -14.7313
52
root -20.2938 17.584 -0.522518 91.6668 -82.3173 -100.387
lowerback 4.50246 2.08767 7.3586
upperback 3.01066 2.97528 -0.0831143
thorax 0.981619 1.58047 -4.30476
lowerneck -4.63692 -7.25107 -6.38713
upperneck -8.52541 -9.21468 10.5362
head -1.07703 -4.68687 4.50055
rclavicle -1.75878e-014 1.98785e-014
rhumerus 33.2889 12.6345 -44.049
rradius 63.9474
rwrist 5.84342
rhand -20.4484 7.92624
rfingers 7.12502
rthumb 5.90689 -21.9714
lclavicle -1.75878e-014 1.98785e-014
lhumerus -21.7568 -7.79909 83.7004
lradius 13.9066
lwrist 11.2591
lhand -10.8234 -6.86287
lfingers 7.12502
lthumb 15.1906 22.5595
rfemur 10.8207 4.28426 27.7667
rtibia 27.124
rfoot -13.0018 -3.28019
rtoes -17.6163
lfemur -7.58911 1.33641 -11.6204
ltibia 26.6015
lfoot -2.88082 -6.93191
ltoes -14.2368
53
root -20.3454 17.5858 -0.499389 91.5176 -82.3197 -100.169
lowerback 4.38369 2.11486 7.38981
upperback 2.98788 3.0056 -0.147951
thorax 1.03369 1.59896 -4.38541
lowerneck -4.58187 -7.31411 -6.36561
upperneck -8.58259 -9.29877 10.5989
head -1.09558 -4.73312 4.52025
rclavicle -2.47316e-015 -1.27222e-014
rhumerus 34.6774 12.2956 -42.9708
rradius 62.7276
rwrist 6.11708
rhand -20.7536 8.24861
rfingers 7.12502
rthumb 5.6123 -21.6571
lclavicle -2.47316e-015 -1.27222e-014
lhumerus -21.2186 -8.59404 83.6794
lradius 14.1341
lwrist 11.803
lhand -10.9553 -6.86323
lfingers 7.12502
lthumb 15.0635 22.5687
rfemur 10.8111 4.28471 27.675
rtibia 27.3085
rfoot -12.9573 -3.19907
rtoes -17.9383
lfemur -7.49547 1.51955 -11.6826
ltibia 26.6653
lfoot -3.03147 -7.13123
ltoes -13.5933
54
root -20.3942 17.5867 -0.476081 91.2448 -82.3233 -99.8398
lowerback 4.27889 2.13673 7.44339
upperback 2.97918 3.02969 -0.219068
thorax 1.09364 1.61528 -4.48516
lowerneck -4.55452 -7.38407 -6.35161
upperneck -8.62383 -9.3913 10.6729
head -1.1022 -4.78284 4.54313
rclavicle 1.618e-014 -1.98785e-014
rhumerus 36.0471 11.9954 -41.8451
rradius 61.4664
rwrist 6.30993
rhand -21.1186 8.58682
rfingers 7.12502
rthumb 5.25984 -21.3279
lclavicle 1.618e-014 -1.98785e-014
lhumerus -20.6809 -9.38351 83.6501
lradius 14.3699
lwrist 12.3289
lhand -11.0915 -6.84197
lfingers 7.12502
lthumb 14.9324 22.5998
rfemur 10.8109 4.27207 27.5834
rtibia 27.4891
rfoot -12.9026 -3.13586
rtoes -18.3534
lfemur -7.41625 1.70979 -11.7521
ltibia 26.7435
lfoot -3.1903 -7.36312
ltoes -13.2851
55
root -20.4419 17.5877 -0.452975 91.0456 -82.3483 -99.5773
lowerback 4.19452 2.15999 7.4672
upperback 2.95278 3.05748 -0.294171
thorax 1.12278 1.63157 -4.57388
lowerneck -4.49129 -7.44074 -6.33366
upperneck -8.70071 -9.46565 10.7584
head -1.12812 -4.82532 4.57324
rclavicle -8.74342e-016 -9.54166e-015
rhumerus 37.366 11.7155 -40.7339
rradius 60.1865
rwrist 6.50495
rhand -21.472 8.9457
rfingers 7.12502
rthumb 4.91864 -20.9772
lclavicle -8.74342e-016 -9.54166e-015
lhumerus -20.1549 -10.0791 83.5929
lradius 14.5696
lwrist 12.7065
lhand -11.2571 -6.82311
lfingers 7.12502
lthumb 14.7728 22.6304
rfemur 10.793 4.28242 27.4674
rtibia 27.6757
rfoot -12.8565 -3.06852
rtoes -18.5764
lfemur -7.34259 1.8775 -11.8448
ltibia 26.8194
lfoot -3.34503 -7.56311
ltoes -12.8033
56
root -20.4878 17.5889 -0.430929 90.6886 -82.3554 -99.1756
lowerback 4.13538 2.17393 7.50696
upperback 2.93923 3.07429 -0.359636
thorax 1.15024 1.64257 -4.66214
lowerneck -4.49378 -7.49992 -6.30765
upperneck -8.74383 -9.5433 10.8236
head -1.13245 -4.86742 4.58991
rclavicle -1.06614e-015 0
rhumerus 38.6695 11.4711 -39.5533
rradius 58.9056
rwrist 6.59865
rhand -21.8405 9.30482
rfingers 7.12502
rthumb 4.56278 -20.626
lclavicle -1.06614e-015 0
lhumerus -19.6161 -10.7529 83.5234
lradius 14.779
lwrist 13.0613
lhand -11.3612 -6.81333
lfingers 7.12502
lthumb 14.6725 22.6475
rfemur 10.7918 4.25161 27.3722
rtibia 27.8594
rfoot -12.7972 -2.99667
rtoes -18.8544
lfemur -7.26851 2.06686 -11.9077
ltibia 26.8988
lfoot -3.47318 -7.7886
ltoes -12.3117
57
root -20.5323 17.5891 -0.410682 90.3578 -82.358 -98.7905
lowerback 4.0659 2.20045 7.53411
upperback 2.92677 3.10662 -0.427955
thorax 1.18623 1.66154 -4.74601
lowerneck -4.53961 -7.55956 -6.25329
upperneck -8.77335 -9.62173 10.8904
head -1.12586 -4.90983 4.59906
rclavicle 3.22909e-014 3.33958e-014
rhumerus 39.8957 11.2217 -38.3732
rradius 57.6657
rwrist 6.64592
rhand -22.1855 9.62028
rfingers 7.12502
rthumb 4.22963 -20.3175
lclavicle 3.22909e-014 3.33958e-014
lhumerus -19.0291 -11.2202 83.3991
lradius 14.899
lwrist 13.167
lhand -11.4637 -6.87098
lfingers 7.12502
lthumb 14.5738 22.597
rfemur 10.781 4.24762 27.3003
rtibia 28.0441
rfoot -12.7552 -2.96042
rtoes -19.1732
lfemur -7.20641 2.25845 -11.9573
ltibia 26.9724
lfoot -3.59677 -8.03147
ltoes -11.8685
58
root -20.5753 17.59 -0.391238 90.0054 -82.3636 -98.3792
lowerback 4.02396 2.21233 7.56117
upperback 2.90288 3.12226 -0.496199
thorax 1.19268 1.67076 -4.83116
lowerneck -4.61465 -7.62001 -6.21345
upperneck -8.78804 -9.70056 10.9591
head -1.10834 -4.9512 4.60941
rclavicle -4.50395e-014 1.03368e-014
rhumerus 41.1032 11.01 -37.2171
rradius 56.408
rwrist 6.70257
rhand -22.5287 9.938
rfingers 7.12502
rthumb 3.89823 -20.0061
lclavicle -4.50395e-014 1.03368e-014
lhumerus -18.489 -11.6954 83.2769
lradius 15.0613
lwrist 13.318
lhand -11.5388 -6.92415
lfingers 7.12502
lthumb 14.5014 22.5491
rfemur 10.7599 4.22223 27.2189
rtibia 28.225
rfoot -12.7065 -2.90153
rtoes -19.5401
lfemur -7.15209 2.47857 -12.0035
ltibia 27.0452
lfoot -3.7127 -8.30476
ltoes -11.5229
59
root -20.6173 17.59 -0.373524 89.5359 -82.3701 -97.8756
lowerback 3.98963 2.22406 7.56299
upperback 2.9033 3.13591 -0.55432
thorax 1.21782 1.67957 -4.89127
lowerneck -4.75464 -7.68213 -6.16822
upperneck -8.78777 -9.78072 11.0282
head -1.07453 -4.9919 4.61487
rclavicle -3.41972e-015 0
rhumerus 42.255 10.7944 -35.9902
rradius 55.2534
rwrist 6.62411
rhand -22.8536 10.1992
rfingers 7.12502
rthumb 3.58448 -19.7504
lclavicle -3.41972e-015 0
lhumerus -17.9223 -12.0967 83.1469
lradius 15.219
lwrist 13.4276
lhand -11.5796 -7.02899
lfingers 7.12502
lthumb 14.4621 22.4471
rfemur 10.7744 4.21074 27.1584
rtibia 28.3952
rfoot -12.6521 -2.88087
rtoes -19.7915
lfemur -7.08662 2.76077 -12.0389
ltibia 27.1213
lfoot -3.80221 -8.64752
ltoes -11.0637
